{
  "accessors": [
    {
      "bufferView": 2,
      "componentType": 5126,
      "count": 740,
      "max": [
        48.62491989135742,
        48.94093704223633,
        22.461292266845703
      ],
      "min": [
        -49.0250358581543,
        -62.159603118896484,
        6.138702392578125
      ],
      "type": "VEC3"
    },
    {
      "bufferView": 2,
      "byteOffset": 8880,
      "componentType": 5126,
      "count": 740,
      "max": [
        0.995635449886322,
        0.9957062005996704,
        0.9975243806838989
      ],
      "min": [
        -0.9959486126899719,
        -0.9970408082008362,
        -0.9999117255210876
      ],
      "type": "VEC3"
    },
    {
      "bufferView": 1,
      "componentType": 5126,
      "count": 740,
      "max": [
        1.0097169876098633,
        0.009088635444641113
      ],
      "min": [
        -0.11961831152439117,
        -1.0090491771697998
      ],
      "type": "VEC2"
    },
    {
      "bufferView": 0,
      "componentType": 5125,
      "count": 4116,
      "type": "SCALAR"
    },
    {
      "bufferView": 2,
      "byteOffset": 17760,
      "componentType": 5126,
      "count": 110,
      "max": [
        631.2737426757813,
        -38.74835205078125,
        432.40496826171875
      ],
      "min": [
        -314.1673278808594,
        -6562.13037109375,
        -14876.00390625
      ],
      "type": "VEC3"
    },
    {
      "bufferView": 2,
      "byteOffset": 19080,
      "componentType": 5126,
      "count": 110,
      "max": [
        0.9955881834030151,
        0.02472224272787571,
        0.9969425797462463
      ],
      "min": [
        -0.9951171278953552,
        -0.9998747706413269,
        -0.9956044554710388
      ],
      "type": "VEC3"
    },
    {
      "bufferView": 1,
      "byteOffset": 5920,
      "componentType": 5126,
      "count": 110,
      "max": [
        0.25942522287368774,
        0.7794134616851807
      ],
      "min": [
        0.00977748166769743,
        0.006626904010772705
      ],
      "type": "VEC2"
    },
    {
      "bufferView": 1,
      "byteOffset": 6800,
      "componentType": 5126,
      "count": 110,
      "max": [
        0.25942522287368774,
        0.7794134616851807
      ],
      "min": [
        0.00977748166769743,
        0.006626904010772705
      ],
      "type": "VEC2"
    },
    {
      "bufferView": 0,
      "byteOffset": 16464,
      "componentType": 5125,
      "count": 594,
      "type": "SCALAR"
    },
    {
      "bufferView": 2,
      "byteOffset": 20400,
      "componentType": 5126,
      "count": 120,
      "max": [
        631.2737426757813,
        6469.26318359375,
        432.40496826171875
      ],
      "min": [
        -314.1622314453125,
        -46.541805267333984,
        -14891.2197265625
      ],
      "type": "VEC3"
    },
    {
      "bufferView": 2,
      "byteOffset": 21840,
      "componentType": 5126,
      "count": 120,
      "max": [
        0.9955881834030151,
        0.9998559951782227,
        0.9969425797462463
      ],
      "min": [
        -0.9950872659683228,
        -0.026538291946053505,
        -0.9956044554710388
      ],
      "type": "VEC3"
    },
    {
      "bufferView": 1,
      "byteOffset": 7680,
      "componentType": 5126,
      "count": 120,
      "max": [
        1.0241737365722656,
        0.7805341482162476
      ],
      "min": [
        0.001438279403373599,
        0.006626904010772705
      ],
      "type": "VEC2"
    },
    {
      "bufferView": 1,
      "byteOffset": 8640,
      "componentType": 5126,
      "count": 120,
      "max": [
        1.0241737365722656,
        0.7805341482162476
      ],
      "min": [
        0.001438279403373599,
        0.006626904010772705
      ],
      "type": "VEC2"
    },
    {
      "bufferView": 0,
      "byteOffset": 18840,
      "componentType": 5125,
      "count": 594,
      "type": "SCALAR"
    },
    {
      "bufferView": 2,
      "byteOffset": 23280,
      "componentType": 5126,
      "count": 200,
      "max": [
        727.7484130859375,
        7880.685546875,
        1665.956787109375
      ],
      "min": [
        -581.3209228515625,
        -7973.552734375,
        -16124.771484375
      ],
      "type": "VEC3"
    },
    {
      "bufferView": 2,
      "byteOffset": 25680,
      "componentType": 5126,
      "count": 200,
      "max": [
        0.9921953678131104,
        0.99984210729599,
        0.9982460737228394
      ],
      "min": [
        -0.9915624856948853,
        -0.9998644590377808,
        -0.9974735975265503
      ],
      "type": "VEC3"
    },
    {
      "bufferView": 0,
      "byteOffset": 21216,
      "componentType": 5125,
      "count": 1188,
      "type": "SCALAR"
    }
  ],
  "asset": {
    "extras": {
      "author": "Erik Egnatosyan (https://sketchfab.com/sans.egnatosyan)",
      "license": "CC-BY-4.0 (http://creativecommons.org/licenses/by/4.0/)",
      "source": "https://sketchfab.com/3d-models/css-logo-3d-model-17b34c2b98714c6799544939f476eed3",
      "title": "CSS logo 3d model"
    },
    "generator": "Sketchfab-14.64.0",
    "version": "2.0"
  },
  "bufferViews": [
    {
      "buffer": 0,
      "byteLength": 25968,
      "name": "floatBufferViews",
      "target": 34963
    },
    {
      "buffer": 0,
      "byteLength": 9600,
      "byteOffset": 25968,
      "byteStride": 8,
      "name": "floatBufferViews",
      "target": 34962
    },
    {
      "buffer": 0,
      "byteLength": 28080,
      "byteOffset": 35568,
      "byteStride": 12,
      "name": "floatBufferViews",
      "target": 34962
    }
  ],
  "buffers": [
    {
      "byteLength": 63648,
      "uri": "scene.bin"
    }
  ],
  "materials": [
    {
      "name": "Material.005",
      "pbrMetallicRoughness": {
        "metallicFactor": 0.0,
        "roughnessFactor": 0.0
      }
    },
    {
      "name": "Material.002",
      "pbrMetallicRoughness": {
        "baseColorFactor": [
          0.0193823,
          0.0742136,
          0.775822,
          1.0
        ],
        "metallicFactor": 0.0,
        "roughnessFactor": 0.0
      }
    },
    {
      "name": "Material.003",
      "pbrMetallicRoughness": {
        "baseColorFactor": [
          0.0221738,
          0.130137,
          0.879623,
          1.0
        ],
        "metallicFactor": 0.0,
        "roughnessFactor": 0.0
      }
    },
    {
      "name": "Material.001",
      "pbrMetallicRoughness": {
        "baseColorFactor": [
          0.0193823,
          0.0742136,
          0.775822,
          1.0
        ],
        "metallicFactor": 0.0,
        "roughnessFactor": 0.0
      }
    }
  ],
  "meshes": [
    {
      "name": "Object_0",
      "primitives": [
        {
          "attributes": {
            "NORMAL": 1,
            "POSITION": 0,
            "TEXCOORD_0": 2
          },
          "indices": 3,
          "material": 0,
          "mode": 4
        }
      ]
    },
    {
      "name": "Object_1",
      "primitives": [
        {
          "attributes": {
            "NORMAL": 5,
            "POSITION": 4,
            "TEXCOORD_0": 6,
            "TEXCOORD_1": 7
          },
          "indices": 8,
          "material": 1,
          "mode": 4
        }
      ]
    },
    {
      "name": "Object_2",
      "primitives": [
        {
          "attributes": {
            "NORMAL": 10,
            "POSITION": 9,
            "TEXCOORD_0": 11,
            "TEXCOORD_1": 12
          },
          "indices": 13,
          "material": 2,
          "mode": 4
        }
      ]
    },
    {
      "name": "Object_3",
      "primitives": [
        {
          "attributes": {
            "NORMAL": 15,
            "POSITION": 14
          },
          "indices": 16,
          "material": 3,
          "mode": 4
        }
      ]
    }
  ],
  "nodes": [
    {
      "children": [
        1
      ],
      "matrix": [
        -0.007266487460583448,
        -6.122647957307662e-17,
        0.9999735951423645,
        0.0,
        0.9999735951423645,
        -1.6242574663315086e-16,
        0.007266487460583448,
        0.0,
        1.6197656202133315e-16,
        1.0,
        6.240512591918098e-17,
        0.0,
        0.0,
        0.0,
        0.0,
        1.0
      ],
      "name": "Sketchfab_model"
    },
    {
      "children": [
        2
      ],
      "name": "root"
    },
    {
      "children": [
        3
      ],
      "matrix": [
        1.0,
        0.0,
        0.0,
        0.0,
        0.0,
        2.220446049250313e-16,
        1.0,
        0.0,
        0.0,
        -1.0,
        2.220446049250313e-16,
        0.0,
        0.0,
        0.0,
        0.0,
        1.0
      ],
      "name": "GLTF_SceneRootNode"
    },
    {
      "children": [
        4,
        6,
        9
      ],
      "matrix": [
        0.009999999776482582,
        0.0,
        0.0,
        0.0,
        0.0,
        -1.6858739316326353e-09,
        0.00999999977648244,
        0.0,
        0.0,
        -0.00999999977648244,
        -1.6858739316326353e-09,
        0.0,
        20.7893009185791,
        136.74609375,
        10.171588897705078,
        1.0
      ],
      "name": "css_3"
    },
    {
      "children": [
        5
      ],
      "matrix": [
        1.1920930774067529e-05,
        -100.00001525878835,
        -7.105428441803174e-13,
        0.0,
        -1.1920928955078125e-05,
        -7.105427357601002e-13,
        -99.99999999999929,
        0.0,
        100.00001525878764,
        1.1920930774067529e-05,
        -1.1920930774067529e-05,
        0.0,
        -142.9405517578125,
        -32.74818801879883,
        -5922.869140625,
        1.0
      ],
      "name": "Cube_1_0"
    },
    {
      "mesh": 0,
      "name": "Object_5"
    },
    {
      "children": [
        7,
        8
      ],
      "matrix": [
        1.0,
        0.0,
        0.0,
        0.0,
        0.0,
        1.0,
        0.0,
        0.0,
        0.0,
        0.0,
        1.0,
        0.0,
        326.269775390625,
        35.486976623535156,
        1926.6160888671875,
        1.0
      ],
      "name": "ramka_1"
    },
    {
      "mesh": 1,
      "name": "Object_7"
    },
    {
      "mesh": 2,
      "name": "Object_8"
    },
    {
      "children": [
        10
      ],
      "matrix": [
        1.0,
        0.0,
        0.0,
        0.0,
        0.0,
        1.0,
        0.0,
        0.0,
        0.0,
        0.0,
        1.0,
        0.0,
        -182.683837890625,
        35.486976623535156,
        1926.6160888671875,
        1.0
      ],
      "name": "ramka2_2"
    },
    {
      "mesh": 3,
      "name": "Object_10"
    }
  ],
  "scene": 0,
  "scenes": [
    {
      "name": "Sketchfab_Scene",
      "nodes": [
        0
      ]
    }
  ]
}
