{
  "accessors": [
    {
      "bufferView": 2,
      "componentType": 5126,
      "count": 200,
      "max": [
        727.7484130859375,
        7880.685546875,
        1665.956787109375
      ],
      "min": [
        -581.3209228515625,
        -7973.552734375,
        -16124.771484375
      ],
      "type": "VEC3"
    },
    {
      "bufferView": 2,
      "byteOffset": 2400,
      "componentType": 5126,
      "count": 200,
      "max": [
        0.9921953678131104,
        0.99984210729599,
        0.9982460737228394
      ],
      "min": [
        -0.9915624856948853,
        -0.9998644590377808,
        -0.9974735975265503
      ],
      "type": "VEC3"
    },
    {
      "bufferView": 0,
      "componentType": 5125,
      "count": 1188,
      "type": "SCALAR"
    },
    {
      "bufferView": 2,
      "byteOffset": 4800,
      "componentType": 5126,
      "count": 196,
      "max": [
        631.2737426757813,
        6469.26318359375,
        432.40496826171875
      ],
      "min": [
        -314.1673278808594,
        -6562.13037109375,
        -14891.2197265625
      ],
      "type": "VEC3"
    },
    {
      "bufferView": 2,
      "byteOffset": 7152,
      "componentType": 5126,
      "count": 196,
      "max": [
        0.9955881834030151,
        0.9998559951782227,
        0.9969425797462463
      ],
      "min": [
        -0.9951171278953552,
        -0.9998747706413269,
        -0.9956044554710388
      ],
      "type": "VEC3"
    },
    {
      "bufferView": 1,
      "componentType": 5126,
      "count": 196,
      "max": [
        1.0241737365722656,
        0.7805341482162476
      ],
      "min": [
        0.001438279403373599,
        0.006626904010772705
      ],
      "type": "VEC2"
    },
    {
      "bufferView": 1,
      "byteOffset": 1568,
      "componentType": 5126,
      "count": 196,
      "max": [
        1.0241737365722656,
        0.7805341482162476
      ],
      "min": [
        0.001438279403373599,
        0.006626904010772705
      ],
      "type": "VEC2"
    },
    {
      "bufferView": 0,
      "byteOffset": 4752,
      "componentType": 5125,
      "count": 966,
      "type": "SCALAR"
    },
    {
      "bufferView": 2,
      "byteOffset": 9504,
      "componentType": 5126,
      "count": 52,
      "max": [
        631.2737426757813,
        -38.74835205078125,
        432.40496826171875
      ],
      "min": [
        -118.43473815917969,
        -6562.13037109375,
        -14875.625
      ],
      "type": "VEC3"
    },
    {
      "bufferView": 2,
      "byteOffset": 10128,
      "componentType": 5126,
      "count": 52,
      "max": [
        0.9955881834030151,
        -0.00022156909108161926,
        0.9969425797462463
      ],
      "min": [
        -0.0033988235518336296,
        -0.9998747706413269,
        -0.9947600960731506
      ],
      "type": "VEC3"
    },
    {
      "bufferView": 1,
      "byteOffset": 3136,
      "componentType": 5126,
      "count": 52,
      "max": [
        0.25349438190460205,
        0.7271703481674194
      ],
      "min": [
        0.00977748166769743,
        0.010988414287567139
      ],
      "type": "VEC2"
    },
    {
      "bufferView": 1,
      "byteOffset": 3552,
      "componentType": 5126,
      "count": 52,
      "max": [
        0.25349438190460205,
        0.7271703481674194
      ],
      "min": [
        0.00977748166769743,
        0.010988414287567139
      ],
      "type": "VEC2"
    },
    {
      "bufferView": 0,
      "byteOffset": 8616,
      "componentType": 5125,
      "count": 222,
      "type": "SCALAR"
    },
    {
      "bufferView": 2,
      "byteOffset": 10752,
      "componentType": 5126,
      "count": 768,
      "max": [
        0.748252272605896,
        0.6194688677787781,
        2.6887986678048037e-05
      ],
      "min": [
        -0.351475328207016,
        -0.34550201892852783,
        -0.16665969789028168
      ],
      "type": "VEC3"
    },
    {
      "bufferView": 2,
      "byteOffset": 19968,
      "componentType": 5126,
      "count": 768,
      "max": [
        0.9968549013137817,
        0.9998666048049927,
        0.9973878860473633
      ],
      "min": [
        -0.9958873391151428,
        -0.999779999256134,
        -0.9992839097976685
      ],
      "type": "VEC3"
    },
    {
      "bufferView": 1,
      "byteOffset": 3968,
      "componentType": 5126,
      "count": 768,
      "max": [
        0.4647486209869385,
        0.0009943842887878418
      ],
      "min": [
        -0.0023498982191085815,
        -0.5322742462158203
      ],
      "type": "VEC2"
    },
    {
      "bufferView": 0,
      "byteOffset": 9504,
      "componentType": 5125,
      "count": 4596,
      "type": "SCALAR"
    }
  ],
  "asset": {
    "extras": {
      "author": "Erik Egnatosyan (https://sketchfab.com/sans.egnatosyan)",
      "license": "CC-BY-4.0 (http://creativecommons.org/licenses/by/4.0/)",
      "source": "https://sketchfab.com/3d-models/html-logo-3d-model-ab8b32cab3364027ab00a033a0b2ff38",
      "title": "HTML logo 3d model"
    },
    "generator": "Sketchfab-14.15.0",
    "version": "2.0"
  },
  "bufferViews": [
    {
      "buffer": 0,
      "byteLength": 27888,
      "name": "floatBufferViews",
      "target": 34963
    },
    {
      "buffer": 0,
      "byteLength": 10112,
      "byteOffset": 27888,
      "byteStride": 8,
      "name": "floatBufferViews",
      "target": 34962
    },
    {
      "buffer": 0,
      "byteLength": 29184,
      "byteOffset": 38000,
      "byteStride": 12,
      "name": "floatBufferViews",
      "target": 34962
    }
  ],
  "buffers": [
    {
      "byteLength": 67184,
      "uri": "scene.bin"
    }
  ],
  "materials": [
    {
      "name": "Material.009",
      "pbrMetallicRoughness": {
        "baseColorFactor": [
          0.768152,
          0.0822826,
          0.0241577,
          1.0
        ],
        "metallicFactor": 0.0,
        "roughnessFactor": 0.0
      }
    },
    {
      "name": "Material.010",
      "pbrMetallicRoughness": {
        "baseColorFactor": [
          1.0,
          0.150535,
          0.0308827,
          1.0
        ],
        "metallicFactor": 0.0,
        "roughnessFactor": 0.0
      }
    },
    {
      "name": "Material.011",
      "pbrMetallicRoughness": {
        "baseColorFactor": [
          0.84121,
          0.0893437,
          0.0259665,
          1.0
        ],
        "metallicFactor": 0.0,
        "roughnessFactor": 0.0
      }
    },
    {
      "name": "Material.012",
      "pbrMetallicRoughness": {
        "metallicFactor": 0.0,
        "roughnessFactor": 0.0
      }
    }
  ],
  "meshes": [
    {
      "name": "Object_0",
      "primitives": [
        {
          "attributes": {
            "NORMAL": 1,
            "POSITION": 0
          },
          "indices": 2,
          "material": 0,
          "mode": 4
        }
      ]
    },
    {
      "name": "Object_1",
      "primitives": [
        {
          "attributes": {
            "NORMAL": 4,
            "POSITION": 3,
            "TEXCOORD_0": 5,
            "TEXCOORD_1": 6
          },
          "indices": 7,
          "material": 1,
          "mode": 4
        }
      ]
    },
    {
      "name": "Object_2",
      "primitives": [
        {
          "attributes": {
            "NORMAL": 9,
            "POSITION": 8,
            "TEXCOORD_0": 10,
            "TEXCOORD_1": 11
          },
          "indices": 12,
          "material": 2,
          "mode": 4
        }
      ]
    },
    {
      "name": "Object_3",
      "primitives": [
        {
          "attributes": {
            "NORMAL": 14,
            "POSITION": 13,
            "TEXCOORD_0": 15
          },
          "indices": 16,
          "material": 3,
          "mode": 4
        }
      ]
    }
  ],
  "nodes": [
    {
      "children": [
        1
      ],
      "matrix": [
        2.220446049250313e-16,
        -2.220446049250313e-16,
        1.0,
        0.0,
        1.0,
        4.930380657631324e-32,
        -2.220446049250313e-16,
        0.0,
        0.0,
        1.0,
        2.220446049250313e-16,
        0.0,
        0.0,
        0.0,
        0.0,
        1.0
      ],
      "name": "Sketchfab_model"
    },
    {
      "children": [
        2
      ],
      "name": "root"
    },
    {
      "children": [
        3,
        5,
        8
      ],
      "matrix": [
        1.0,
        0.0,
        0.0,
        0.0,
        0.0,
        2.220446049250313e-16,
        1.0,
        0.0,
        0.0,
        -1.0,
        2.220446049250313e-16,
        0.0,
        0.0,
        0.0,
        0.0,
        1.0
      ],
      "name": "GLTF_SceneRootNode"
    },
    {
      "children": [
        4
      ],
      "matrix": [
        0.009999999776482582,
        0.0,
        0.0,
        0.0,
        0.0,
        -1.6858739316326353e-09,
        0.00999999977648244,
        0.0,
        0.0,
        -0.00999999977648244,
        -1.6858739316326353e-09,
        0.0,
        18.962459564208984,
        117.47994232177734,
        10.526458740234375,
        1.0
      ],
      "name": "ramka2_0"
    },
    {
      "mesh": 0,
      "name": "Object_4"
    },
    {
      "children": [
        6,
        7
      ],
      "matrix": [
        0.009999999776482582,
        0.0,
        0.0,
        0.0,
        0.0,
        -1.6858739316326353e-09,
        0.00999999977648244,
        0.0,
        0.0,
        -0.00999999977648244,
        -1.6858739316326353e-09,
        0.0,
        24.05199432373047,
        117.47994232177734,
        10.526458740234375,
        1.0
      ],
      "name": "ramka_1"
    },
    {
      "mesh": 1,
      "name": "Object_6"
    },
    {
      "mesh": 2,
      "name": "Object_7"
    },
    {
      "children": [
        9
      ],
      "matrix": [
        2.086162567138672e-05,
        -99.99999999999778,
        2.980230018323482e-06,
        0.0,
        -2.0861625049661825e-05,
        -2.9802343703977385e-06,
        -99.99999999999778,
        0.0,
        99.99999999999565,
        2.0861625049661825e-05,
        -2.086162567138672e-05,
        0.0,
        42.71202087402344,
        209.0439453125,
        23.56490135192871,
        1.0
      ],
      "name": "five_2"
    },
    {
      "mesh": 3,
      "name": "Object_9"
    }
  ],
  "scene": 0,
  "scenes": [
    {
      "name": "Sketchfab_Scene",
      "nodes": [
        0
      ]
    }
  ]
}
