<?xml version="1.0" encoding="utf-8"?>
<!-- Generator: Adobe Illustrator 27.6.1, SVG Export Plug-In . SVG Version: 6.00 Build 0)  -->
<svg version="1.1" id="Layer_2_00000119803581676913409610000005099983114404681090_"
	 xmlns="http://www.w3.org/2000/svg" xmlns:xlink="http://www.w3.org/1999/xlink" x="0px" y="0px" viewBox="0 0 433.5 420"
	 style="enable-background:new 0 0 433.5 420;" xml:space="preserve">
<style type="text/css">
	.st0{display:none;}
	.st1{display:inline;}
	.st2{clip-path:url(#SVGID_00000129164018095665555850000004047998440911083403_);}
	.st3{fill:url(#SVGID_00000116929499477412908610000007067773372280842371_);}
	.st4{fill:url(#SVGID_00000142874037866875346930000009908658976475662729_);stroke:#F04A3D;stroke-miterlimit:10;}
	.st5{fill:url(#SVGID_00000001640888087672529280000018160350376558763138_);}
	.st6{clip-path:url(#SVGID_00000034773906197999034710000010779968214795611066_);}
	.st7{fill:#4784C5;}
	.st8{opacity:0.5;fill:url(#SVGID_00000098926314713514527540000004147929136269322115_);enable-background:new    ;}
	.st9{fill:url(#SVGID_00000127034622604084933660000011985270010720013999_);}
	.st10{fill:url(#SVGID_00000091005887736403284460000002122115109082621845_);}
	.st11{fill:#5A99D2;}
</style>
<g id="Layer_1-2" class="st0">
	<g id="Red_Planet" class="st1">
		<g>
			<defs>
				<path id="SVGID_1_" d="M217.7,10c106,0,199,89,199,199.4s-93,200.6-199,200.6s-201-89.5-201-200S111.7,10,217.7,10z"/>
			</defs>
			
				<linearGradient id="SVGID_00000078004821024562024650000011498123142147864502_" gradientUnits="userSpaceOnUse" x1="24.6841" y1="249.1022" x2="416.5713" y2="169.684">
				<stop  offset="0" style="stop-color:#EFB862"/>
				<stop  offset="1" style="stop-color:#EF3B3E"/>
			</linearGradient>
			<use xlink:href="#SVGID_1_"  style="overflow:visible;fill:url(#SVGID_00000078004821024562024650000011498123142147864502_);"/>
			<clipPath id="SVGID_00000103958010402735774320000005240131789280438712_">
				<use xlink:href="#SVGID_1_"  style="overflow:visible;"/>
			</clipPath>
			<g style="clip-path:url(#SVGID_00000103958010402735774320000005240131789280438712_);">
				
					<linearGradient id="SVGID_00000131343708060232298080000002414469220762246310_" gradientUnits="userSpaceOnUse" x1="-11.4632" y1="172.2375" x2="670.7082" y2="318.4909" gradientTransform="matrix(1 0 0 -1 0 422)">
					<stop  offset="0.18" style="stop-color:#F9BF65"/>
					<stop  offset="0.24" style="stop-color:#F8B561"/>
					<stop  offset="0.34" style="stop-color:#F69B58"/>
					<stop  offset="0.46" style="stop-color:#F3714A"/>
					<stop  offset="0.56" style="stop-color:#F04A3D"/>
				</linearGradient>
				<path style="fill:url(#SVGID_00000131343708060232298080000002414469220762246310_);" d="M378.1,209.7
					c-7.8-22.3-21.5-47.2-47.7-50.5c-19.2-2.4-32.6,9.7-45.8,20.9c-13.1,11.2-24.2,26.4-40.1,34.4c-29.3,14.7-61.9,5.8-93.1,13.8
					c-24.3,6.2-44.2,22.6-65.9,34.5c-21.3,11.7-45.2,19.2-68.9,9.5c-0.9-0.4-1.6-1.2-1.7-2.1c-2.2-11.9-2.4-23.5-0.1-35.4
					c0.6-3.2,1.4-6.3,3.8-8.5c3.8-3.6,8.6-3.1,13.7-3c23.6,0.2,44.2-5.6,63.6-18.2c14.1-9.1,25.5-21.4,41.3-27.4
					c14.2-5.4,27.7-3.8,42.7-6.8c15-3.1,28.1-10.1,33.9-24.5c3.6-9.2,1.7-20,2.6-29.5s3.1-19.9,12.9-23.8c6.8-2.7,11.3,0.7,18.6,1.4
					c30,2.9,49.6-25,48.2-51.1c-0.3-5.1-1.9-11.4-7.4-13.4c-6.4-2.3-11.2,3.1-14.3,8.3s-3.8,12.3-8.1,17.2
					c-11,12.5-26.6,9.2-42,13.4c-13.7,3.7-23.7,13.2-34,22.5c-13.4,12.1-26.9,25.3-40.6,37.3c-5.5,4.9-11,10.4-17.8,13.3
					c-16,6.9-32.7,5.2-49.5,7.1c-2.2,0.3-3.9-1.7-3.2-3.6c7.9-23.7,20.4-46.7,40.6-62.9c10.6-8.5,21.9-14.2,30.3-24.8
					c5-6.3,7.4-14.2,13.8-19.7c9.4-8,19.9-8.2,32.3-10.7c12.4-2.5,13.2-15.3,28.6-17.7C303.4-3,182.4-3.3,140.1,9
					c-27.2,7.9-49,19.6-73.2,43.5C21.1,98,4.7,125.8-11.3,182.1c-5.8,20.2-5.1,27.5-4.1,44.4c0.9,14.8,5,23.9,7.5,37.2
					c4.3,22.2,19.6,40.7,29.2,60.6c3.4,7.1,7.1,14.3,15.6,14.2c4.8,0,6.9-4,10.6-6.3c16.3-10,33.4-5.5,51.8-5.8
					c27.6-0.5,51.2-14,76-23.9c38.9-15.5,80.2-22.7,122-27c2-0.2,3.7,1.5,3.2,3.4c-3.1,13.5-13.8,22.6-27.3,27.1
					c-14.7,4.9-28.5,3.8-42,10c-19.3,8.8-32.4,26-51.3,35.3c-9.3,4.5-18.9,5.5-28.9,7.8c-22.9,5.2-44.3,13.4-64.5,24.8
					c-1.9,1.1-2,3.6-0.2,4.7c0,0,0,0,0,0c7.6,4.9,15.3,9.2,23.8,12.7c9.3,3.8,18.5,7.9,28.1,11.1c9.6,3.2,19.7,5,29.7,7.1
					c0.3,0.1,0.5,0.1,0.8,0.2C222.2,389.7,275.5,360,329,330c3.5-1.9,7-4,8.8-8.1c1.9-4,0.6-8.7,1.5-13.3
					c4.2-20.2,24.9-25.5,36.6-41.7C387.8,250.7,384.2,227.4,378.1,209.7L378.1,209.7z M126.9,34.9c4.2-2.1,9.3-1.5,13.8-0.8
					c3,0.4,4.3,3.7,3.8,6.1c0.2,0.8,0.2,1.6,0,2.3c-0.9,4-3.4,8-7.8,9.2c-5.8,1.6-12.8-2.5-14.1-8.1
					C121.7,40.1,123.4,36.6,126.9,34.9z M338.5,255.8c-6.6,0-12.6-4.1-14.9-9.8c-2-5-0.6-9.7,2.7-13.4c3.6-7.8,16.9-7.8,23.5-2
					C360.2,239.7,352.3,255.8,338.5,255.8L338.5,255.8z"/>
				
					<linearGradient id="SVGID_00000129908680440643676440000009313961933556242362_" gradientUnits="userSpaceOnUse" x1="311.0963" y1="317.7769" x2="395.6843" y2="335.9186" gradientTransform="matrix(1 0 0 -1 0 422)">
					<stop  offset="0.18" style="stop-color:#F9BF65"/>
					<stop  offset="0.24" style="stop-color:#F8B561"/>
					<stop  offset="0.34" style="stop-color:#F69B58"/>
					<stop  offset="0.46" style="stop-color:#F3714A"/>
					<stop  offset="0.56" style="stop-color:#F04A3D"/>
				</linearGradient>
				
					<ellipse style="fill:url(#SVGID_00000129908680440643676440000009313961933556242362_);stroke:#F04A3D;stroke-miterlimit:10;" cx="334.7" cy="99.2" rx="24.2" ry="23.2"/>
			</g>
		</g>
	</g>
</g>
<g id="Layer_1-2_00000121248139200285170980000012158837296266896303_">
	<g id="Blue_Planet">
		
			<linearGradient id="SVGID_00000018919481046470737110000003094021436435642297_" gradientUnits="userSpaceOnUse" x1="16.77" y1="212" x2="416.77" y2="212" gradientTransform="matrix(1 0 0 -1 0 422)">
			<stop  offset="0" style="stop-color:#5496D1"/>
			<stop  offset="0.18" style="stop-color:#5292CE"/>
			<stop  offset="0.34" style="stop-color:#4D87C7"/>
			<stop  offset="0.49" style="stop-color:#4675BA"/>
			<stop  offset="0.64" style="stop-color:#3B5BA9"/>
			<stop  offset="0.72" style="stop-color:#344A9D"/>
			<stop  offset="0.8" style="stop-color:#3752A2"/>
		</linearGradient>
		<circle style="fill:url(#SVGID_00000018919481046470737110000003094021436435642297_);" cx="216.8" cy="210" r="200"/>
		<g>
			<defs>
				<circle id="SVGID_00000035521347604632588290000012404938989930425248_" cx="216.8" cy="210" r="200"/>
			</defs>
			<clipPath id="SVGID_00000106835133522387855350000008855038608128578215_">
				<use xlink:href="#SVGID_00000035521347604632588290000012404938989930425248_"  style="overflow:visible;"/>
			</clipPath>
			<g style="clip-path:url(#SVGID_00000106835133522387855350000008855038608128578215_);">
				<path class="st7" d="M-10.7,145.9c20,4.4,40.1,8.7,60.2,13.1c10.3,2.2,20.7,4.5,31.2,5.1c9.5,0.6,19-0.2,28.4,0.4
					c24,1.6,46.9,12,70.9,12.9c10.8,0.4,21.7-1.2,32.4-2.8c14.6-2.2,29.8-4.5,42.3-12.9c26.8-18.1,32.2-59.5,20-90.6
					c-3.9-9.9-9.4-19.4-17.2-26.2c-14.4-12.7-34.2-15.1-50.9-24.2c-7.1-3.9-13.7-9-21.2-12.1c-9.4-3.9-19.6-4.4-29.7-4.8
					c-12.8-0.6-26.9,4.3-38.4-1.7C63.5-26.4,99.9,1.3,92.2,5.5c-5.4,2.9-9.7,7.9-13.8,12.7C61.1,38.6,43.7,59.1,27.3,80.5
					c-8.5,11-16.7,22.3-24.4,33.9c-3.4,5-8.4,10.8-10.6,16.5C-9.5,135.2-8.2,142.5-10.7,145.9L-10.7,145.9z"/>
				
					<linearGradient id="SVGID_00000032637446800582546780000001888275680546608013_" gradientUnits="userSpaceOnUse" x1="2.5332" y1="225.6161" x2="455.365" y2="225.6161" gradientTransform="matrix(1 0 0 -1 0 422)">
					<stop  offset="0" style="stop-color:#63A5DA"/>
					<stop  offset="0.13" style="stop-color:#5F9ED5;stop-opacity:0.98"/>
					<stop  offset="0.34" style="stop-color:#558BC8;stop-opacity:0.91"/>
					<stop  offset="0.6" style="stop-color:#446CB4;stop-opacity:0.8"/>
					<stop  offset="0.81" style="stop-color:#3550A1;stop-opacity:0.7"/>
				</linearGradient>
				
					<path style="opacity:0.5;fill:url(#SVGID_00000032637446800582546780000001888275680546608013_);enable-background:new    ;" d="
					M451.4,185c-2.2-9.1-5.8-18.4-13.1-24.3c-12-9.7-29.5-7.4-44.7-4.3c-46.1,9.5-92.2,22.2-139.3,20.4c-7.8-0.3-17.8-2.9-18.6-10.6
					c-0.8-7.8,8.7-12.3,16.4-14.4c12.7-3.4,25.5-6.9,38.6-8.9c23.1-3.5,46.6-2.5,69.8-4.3c23.3-1.8,47.2-6.9,65.7-20.9
					c-4.6-11.2-11.3-21.5-19.7-30.4c-3.3-3.5-6.9-6.8-11.5-8.3c-4.7-1.6-9.8-1-14.8-0.4c-23.1,2.7-46.2,5.4-69.3,8
					c-13,1.5-26.4,3.1-37.7,9.6c-16.7,9.5-28.2,28.9-47.4,31.1c-6.9,0.8-13.9-0.9-20.5-3c-12.7-4.1-25-9.6-36.3-16.6
					c-3.3-2-6.7-4.2-10.5-4.9c-13.3-2.4-24.8,13.8-38.1,11.2c-6.2-1.2-10.9-6.3-14-11.7c-6.8-11.4-8.6-25.5-5.6-38.3
					c2-8.6,17.9-29.7-0.7-31.6c-5.4-0.6-10.6,2.1-15.2,5C71.3,45.9,59.4,57,50,69.9c-18.9,25.8-27.2,57.6-35,88.5
					C7.5,187.6,0,217.6,3.3,247.5C4.9,261.7,8.9,275.6,14,289c9.7,25.4,25.5,51,51.1,61.2c8,3.2,16.5,4.7,25,5.9
					c47.9,6.8,96.6,4.2,144.9,1.7c48-2.6,96.1-5.1,144.1-7.7c13.2-0.7,27.1-1.6,38.4-8.3c19.5-11.4,25.9-35.7,30.1-57.6
					C454,251.5,459.3,217.4,451.4,185L451.4,185z M294.6,261.2c-28.7,2-57.2,6.5-86,6.6c-12,0-20.9-9.8-21.4-21.4
					c-0.5-11.6,10.2-21.4,21.4-21.4c28.8-0.1,57.3-4.6,86-6.6c12-0.8,20.9,10.5,21.4,21.4C316.6,251.9,305.8,260.5,294.6,261.2z
					 M395.3,242.1c-2.5,4.2-7.8,9-12.8,9.8c-7.9,1.4-15.6,3.4-23.7,3.6c-12,0.2-20.9-10-21.4-21.4c-0.5-11.7,10.2-21.2,21.4-21.4
					c0.9,0,1.7-0.1,2.6-0.1c3.2-0.6,6.5-1.4,9.7-2c6-1.1,11.2-0.7,16.5,2.2c5,2.6,8.2,7.6,9.8,12.8
					C399.2,230.8,398,237.5,395.3,242.1z"/>
				
					<linearGradient id="SVGID_00000060016955787704823710000011296405929381249701_" gradientUnits="userSpaceOnUse" x1="-25.7129" y1="201.6024" x2="446.0133" y2="201.6024" gradientTransform="matrix(1 0 0 -1 0 422)">
					<stop  offset="0" style="stop-color:#5FA0D6"/>
					<stop  offset="0.2" style="stop-color:#5C9BD2"/>
					<stop  offset="0.43" style="stop-color:#538CC9"/>
					<stop  offset="0.68" style="stop-color:#4575BA"/>
					<stop  offset="0.87" style="stop-color:#375EAB"/>
				</linearGradient>
				<path style="fill:url(#SVGID_00000060016955787704823710000011296405929381249701_);" d="M445.6,221.6c-1.9-22.7-7-44.9-12.1-67
					c-16.5,12.7-34.1,24.2-53.3,31.7c-25.6,10-53.3,12.3-80.5,14.5l-63.2,5.2c-16.4,1.3-32.8,2.7-49.2,2c-9-0.4-18.1-1.4-27-0.1
					c-15.9,2.3-32.7,11.5-47,3.8c-6.1-3.3-10.9-9.4-17.6-10.8c-7.2-1.5-14.1,3-21.4,4.2c-10.3,1.7-20.5-3.3-28.9-9.8
					c-15.2-11.7-37.9-39.4-59.3-26.9c-19.4,11.4-13.8,46.4,6.1,52.1c36.7,10.5,74.1,18.5,111.7,24.1c14.8,2.2,31.7,5.3,39.7,18.7
					c2.5,4.3,4,9.3,7.3,12.9c3.1,3.3,7.4,4.8,11.6,6c19.7,5.4,40.3,4.7,60.6,3.4c41.1-2.6,82.1-7.5,123.1-12.4
					c19.1-2.3,38.3-4.6,57.4-6.8c14.6-1.7,31.3-4.9,38.5-18.5C446.5,239.9,446.4,230.4,445.6,221.6L445.6,221.6z M294.6,261.2
					c-28.7,2-57.2,6.5-86,6.6c-12,0-20.9-9.8-21.4-21.4c-0.5-11.6,10.2-21.4,21.4-21.4c28.8-0.1,57.3-4.6,86-6.6
					c12-0.8,20.9,10.5,21.4,21.4C316.6,251.9,305.8,260.5,294.6,261.2z M395.3,242.1c-2.5,4.2-7.8,9-12.8,9.8
					c-7.9,1.4-15.6,3.4-23.7,3.6c-12,0.2-20.9-10-21.4-21.4c-0.5-11.7,10.2-21.2,21.4-21.4c0.9,0,1.7-0.1,2.6-0.1
					c3.2-0.6,6.5-1.4,9.7-2c6-1.1,11.2-0.7,16.5,2.2c5,2.6,8.2,7.6,9.8,12.8C399.2,230.8,398,237.5,395.3,242.1z"/>
				
					<linearGradient id="SVGID_00000026140129720201575710000011992714745904882316_" gradientUnits="userSpaceOnUse" x1="7.8391" y1="123.295" x2="348.5847" y2="123.295" gradientTransform="matrix(1 0 0 -1 0 422)">
					<stop  offset="0" style="stop-color:#6BACDE"/>
					<stop  offset="0.19" style="stop-color:#68A7DB"/>
					<stop  offset="0.39" style="stop-color:#5F9AD2"/>
					<stop  offset="0.6" style="stop-color:#5185C4"/>
					<stop  offset="0.81" style="stop-color:#3D67B1"/>
					<stop  offset="0.87" style="stop-color:#375EAB"/>
				</linearGradient>
				<path style="fill:url(#SVGID_00000026140129720201575710000011992714745904882316_);" d="M48.2,289.3
					c6.4,8.2,16.2,14.6,26.6,13.9c5.6-0.4,10.8-2.8,16.4-3.1c10.4-0.6,19.6,6,29,10.6c16.6,8.1,36.1,10.3,54.1,5.9
					c9.8-2.4,20.1-6.5,29.4-2.9c4,1.6,7.4,4.4,11.1,6.5c10,5.6,22.1,5.6,33.6,5.4c8-0.2,16.3-0.3,23.7-3.3
					c9.8-3.9,17.1-12.2,25.1-19.1c6.1-5.2,13-9.9,20.8-11.9c7.8-2,16.7-1,22.9,4.1c9.7,7.9,9.9,24.2,1.6,33.5
					c-7.8,8.7-20.3,11.2-32,12.7c-56,7.3-112.8,3.5-169.1-0.2c-8.6-0.6-17.3-1.2-25.6-3.6c-6.7-2-13-5.1-19.9-6.5
					c-8.7-1.8-17.6-0.8-26.5-1.2c-12-0.5-23.7-3.6-35.3-6.7c-2.8-0.8-5.7-1.5-8.1-3.3c-3-2.2-4.8-5.6-6.4-9
					C14,298.7-0.7,264.4,14.5,254C32.9,241.5,40.5,279.5,48.2,289.3L48.2,289.3z"/>
				<path class="st11" d="M195.3,370.4c9,0.4,19.1,1.5,24.8,8.4c7.2,8.8,3.2,23-5.7,30.2c-8.8,7.2-20.7,9.2-32,10.4
					c-22.6,2.6-45.5,3.5-68.2,2.7c-3.6-0.1-7.2-0.3-10.6-1.4c-4.5-1.5-8.2-4.6-11.7-7.8c-10.4-9.5-29.4-26.2-33-40.3
					c-3.4-13.3,12.4-15.2,22.5-14c18.1,2,35.7,7.5,54.1,9C155.5,369.2,175.4,369.4,195.3,370.4L195.3,370.4z"/>
			</g>
		</g>
	</g>
</g>
</svg>
