<?xml version="1.0" encoding="UTF-8"?>
<svg id="Layer_2" data-name="Layer 2" xmlns="http://www.w3.org/2000/svg" viewBox="0 0 423.52 291.38">
  <defs>
    <style>
      .cls-1 {
        fill: white;
      }

      .cls-2 {
        fill: #7763ac;
        stroke-width: 36px;
      }

      .cls-2, .cls-3 {
        stroke: white;
        stroke-miterlimit: 10;
      }

      .cls-3 {
        fill: blue;
        stroke-width: 12px;
      }
    </style>
  </defs>
  <g id="Layer_1-2" data-name="Layer 1">
    <g id="svg">
      <g>
        <path class="cls-1" d="m344.7,134.73c-.16-1.89-.35-3.77-.59-5.63-3.27-25.58-13.98-48.85-29.9-67.59-1.19-1.4-2.41-2.78-3.67-4.14-23.79-25.73-57.83-41.87-95.57-41.87-71.78,0-130.19,58.4-130.19,130.19,0,5.8.38,11.52,1.13,17.12.23,1.81.51,3.61.82,5.4,4.49,25.67,16.53,48.76,33.74,66.93,1.27,1.35,2.58,2.68,3.92,3.98,23.45,22.74,55.41,36.76,90.58,36.76,71.79,0,130.19-58.4,130.19-130.19,0-3.69-.15-7.35-.46-10.96Zm-129.73,136.15c-32.84,0-62.75-12.71-85.11-33.46-1.37-1.27-2.72-2.58-4.03-3.92-17.96-18.23-30.39-41.92-34.53-68.33-.29-1.8-.53-3.62-.73-5.44-.52-4.61-.79-9.29-.79-14.04,0-69.03,56.16-125.19,125.19-125.19,35.4,0,67.42,14.77,90.21,38.48,1.29,1.33,2.54,2.7,3.76,4.09,16.64,18.89,27.67,42.81,30.5,69.16.2,1.87.36,3.76.48,5.66.16,2.58.24,5.18.24,7.8,0,69.03-56.16,125.19-125.19,125.19Z"/>
        <g>
          <path class="cls-1" d="m344.65,134.73c-2.75-34.03-19.66-66.48-45.83-88.37-89.07-74.01-221.98-5.11-213.18,110.26,3.8,51.23,40.93,97.51,89.97,112.65,87.7,28.03,176.74-42.73,169.04-134.54h0Zm.1,0c8.13,92.06-81.36,163.83-169.43,135.45-49.35-15.3-86.7-61.91-90.48-113.49-8.69-115.84,124.79-185.1,214.12-110.48,26.18,21.95,43.08,54.45,45.79,88.52h0Z"/>
          <path class="cls-1" d="m214.97,270.93c-49.63.59-97.12-31.4-115.82-77.27C64.88,111.27,125.85,20.21,214.97,20.1c49.74-.54,97.44,31.45,116.08,77.52,34.41,82.08-27.24,173.69-116.08,173.31h0Zm0-.1c88.66-.15,149.18-90.97,115.21-172.85-18.48-45.76-65.81-77.57-115.21-77.08-88.76,0-149.34,90.56-115.5,172.62,18.53,45.88,65.95,77.85,115.5,77.31h0Z"/>
        </g>
      </g>
      <path class="cls-2" d="m342.32,136.32c-.14-1.9-.32-3.79-.54-5.66-3.04-25.99-13.89-49.58-30.14-68.39-1.21-1.4-2.44-2.78-3.72-4.12-23.27-24.72-56.31-40.15-92.95-40.15-70.52,0-127.69,57.17-127.69,127.69,0,5.28.32,10.48.94,15.58.22,1.82.48,3.62.78,5.42,4.31,26.06,16.52,49.46,34.08,67.66,1.3,1.35,2.62,2.66,3.98,3.95,22.9,21.74,53.85,35.08,87.91,35.08,70.53,0,127.69-57.17,127.69-127.69,0-3.15-.11-6.28-.34-9.37Z"/>
      <g>
        <path class="cls-1" d="m420.83,51.92c-7.82-16.58-34.84-19.37-82.61-8.53-9.31,2.11-19.24,4.72-29.48,7.74-.91.26-1.81.53-2.67.79-.74.22-1.48.45-2.23.67l-10.74,3.27,7.41,7.64c1.13,1.16,2.29,2.42,3.54,3.85l2.78,3.17,4.03-1.25c.84-.26,1.69-.51,2.53-.75l.19-.06c.8-.25,1.6-.48,2.44-.72,9.07-2.64,17.88-4.93,26.17-6.81,17.01-3.86,31.94-5.9,43.18-5.9,6.17,0,11.1.59,14.65,1.75,2.36.77,4.05,1.82,4.52,2.8,1.41,3-3.03,18.12-40.7,47.26-7.14,5.52-15.01,11.2-23.38,16.87-.76.51-1.53,1.02-2.34,1.57-.76.52-1.53,1.03-2.28,1.53-29.61,19.63-65.61,39.6-104.1,57.75-37.63,17.74-74.92,32.52-107.87,42.74-.67.21-1.35.42-2.02.63l-.7.21c-.85.26-1.7.52-2.55.77-64.66,19.38-90.72,14.75-93.2,9.47-2.44-5.19,10.22-27.85,64.94-64.77l3.24-2.16c.42-.28.85-.56,1.28-.84l3.53-2.31-.67-4.17c-.26-1.61-.49-3.33-.69-5.12l-1.15-10.45-8.84,5.7c-.51.33-1.01.66-1.51.99l-3.23,2.15c-9.78,6.53-18.94,13.09-27.21,19.49C16.33,206.85,1.29,229.47,9.11,246.06c4.68,9.92,16.6,14.95,35.44,14.95,12.56,0,28.43-2.16,47.18-6.41,10.9-2.47,22.53-5.59,34.55-9.26.91-.28,1.82-.55,2.78-.85.92-.29,1.85-.58,2.76-.87,33.33-10.51,70.54-25.3,107.61-42.78,38.23-18.02,74.21-37.91,104.01-57.48.68-.44,1.35-.88,2.02-1.32l.5-.33c.78-.53,1.55-1.04,2.37-1.58,9.62-6.46,18.54-12.86,26.54-19.04,38.75-29.98,53.78-52.6,45.96-69.18Z"/>
        <path class="cls-1" d="m420.2,52.21c-15.3-31.69-100.44-3.56-126.8,4.59,0,0,.42-1.63.42-1.63,0,0,7.06,7.15,7.06,7.15,2.33,2.41,4.63,4.91,6.86,7.42,0,0-1.25-.35-1.25-.35,19.08-6.11,38.47-11.49,58.31-14.62,10.57-1.48,33.04-4.6,41.15,2.6,3.03,3.41.08,8.9-1.56,12.21C360.39,140.39,124.57,251,40.31,248.22c-29.08-1-23.02-16.85-8.25-33.76,18.4-20.43,40.42-36.13,62.99-51.25,0,0-2.68,6.06-2.68,6.06-1.24-5.76-1.88-14.12-2.68-20.02,0,0,9.56,4.55,9.56,4.55-10.67,6.95-21.9,14.5-32.04,22.15-15.37,11.78-60.68,45.97-51.67,66.87,15.35,30.38,131.69-10.9,158.15-20.86,60.95-22.95,120.79-50.28,175.8-85.37,10.96-7.1,21.7-14.57,31.94-22.69,15.54-12.59,48.65-39.45,38.76-61.67h0Zm1.27-.6c10.62,23.06-22.51,51.08-38.06,64.69-15.16,12.68-31.17,24.3-47.65,35.21-66.17,43.33-137.84,79.1-213.55,102.42-29.08,8.2-103.5,30.35-119.77-5.17-13.92-31.68,35.25-66.99,57.03-83.34,8-5.8,16.42-11.46,24.73-16.8,4.23-2.66,12.61-8.02,16.83-10.68,0,0,1.03,9.96,1.03,9.96.31,3.19,1.18,11.52,1.6,14.57.35,2.6.94,6.18,1.32,8.85-6.64,4.22-13.32,8.57-19.72,13.04-16.38,11.59-47.2,33.93-54.57,51.84-.12.43-.14.8-.15.68,0-.29-.13-.59-.26-.85-.04-.09-.09-.19-.15-.27-.06-.08-.15-.17-.15-.19-.03-.07-.14-.15-.15-.16.01,0,.01,0,.01.01,0,0,.16.1.16.1.04.04.12.08.23.13.47.27,1.38.57,1.91.73,8.8,2.15,18.49,1.31,27.72.39,92.75-11.98,250.51-85.91,320.88-147.88,4.87-4.4,9.51-9.03,13.64-14.01,3.36-4.22,7.27-9.27,7.96-14.2.05.08.03.04,0,0-.17-.21-.73-.6-1.31-.89-.6-.3-1.27-.57-1.97-.8-4.52-1.41-9.32-1.68-14.11-1.75-6.51-.04-13.09.52-19.63,1.35-19.71,2.58-39.08,7.42-58.14,13.1,0,0-.75.23-.75.23-2.34-2.73-4.67-5.43-7.12-8.06-.77-.84-7.49-7.84-8.05-8.46,0,0,1.54-.45,1.54-.45,21.58-6.52,43.37-12.57,65.67-16.15,18.71-2.66,52.96-7.45,62.98,12.85h0Z"/>
      </g>

    </g>
  </g>
</svg>
