<?xml version="1.0" encoding="utf-8"?>
<!-- Generator: Adobe Illustrator 27.6.1, SVG Export Plug-In . SVG Version: 6.00 Build 0)  -->
<svg version="1.1" id="Layer_2_00000119803581676913409610000005099983114404681090_"
	 xmlns="http://www.w3.org/2000/svg" xmlns:xlink="http://www.w3.org/1999/xlink" x="0px" y="0px" viewBox="0 0 433.5 420"
	 style="enable-background:new 0 0 433.5 420;" xml:space="preserve">
<style type="text/css">
	.st0{clip-path:url(#SVGID_00000165919132655309263420000013707691884866373309_);}
	.st1{fill:url(#SVGID_00000124163618555608591350000008585149843378393785_);}
	.st2{fill:url(#SVGID_00000150082474842498069290000002101623942941246348_);stroke:#F04A3D;stroke-miterlimit:10;}
</style>
<g id="Layer_1-2">
	<g id="Red_Planet">
		<g>
			<defs>
				<path id="SVGID_1_" d="M217.7,10c106,0,199,89,199,199.4s-93,200.6-199,200.6s-201-89.5-201-200S111.7,10,217.7,10z"/>
			</defs>
			
				<linearGradient id="SVGID_00000129901631111300400520000007953879151328414341_" gradientUnits="userSpaceOnUse" x1="24.6841" y1="249.1022" x2="416.5713" y2="169.684">
				<stop  offset="0" style="stop-color:#EFB862"/>
				<stop  offset="1" style="stop-color:#EF3B3E"/>
			</linearGradient>
			<use xlink:href="#SVGID_1_"  style="overflow:visible;fill:url(#SVGID_00000129901631111300400520000007953879151328414341_);"/>
			<clipPath id="SVGID_00000035520703566971293760000011631761090957059208_">
				<use xlink:href="#SVGID_1_"  style="overflow:visible;"/>
			</clipPath>
			<g style="clip-path:url(#SVGID_00000035520703566971293760000011631761090957059208_);">
				
					<linearGradient id="SVGID_00000079479265817667924820000017622713154492991674_" gradientUnits="userSpaceOnUse" x1="-11.4632" y1="172.2375" x2="670.7082" y2="318.4909" gradientTransform="matrix(1 0 0 -1 0 422)">
					<stop  offset="0.18" style="stop-color:#F9BF65"/>
					<stop  offset="0.24" style="stop-color:#F8B561"/>
					<stop  offset="0.34" style="stop-color:#F69B58"/>
					<stop  offset="0.46" style="stop-color:#F3714A"/>
					<stop  offset="0.56" style="stop-color:#F04A3D"/>
				</linearGradient>
				<path style="fill:url(#SVGID_00000079479265817667924820000017622713154492991674_);" d="M378.1,209.7
					c-7.8-22.3-21.5-47.2-47.7-50.5c-19.2-2.4-32.6,9.7-45.8,20.9c-13.1,11.2-24.2,26.4-40.1,34.4c-29.3,14.7-61.9,5.8-93.1,13.8
					c-24.3,6.2-44.2,22.6-65.9,34.5c-21.3,11.7-45.2,19.2-68.9,9.5c-0.9-0.4-1.6-1.2-1.7-2.1c-2.2-11.9-2.4-23.5-0.1-35.4
					c0.6-3.2,1.4-6.3,3.8-8.5c3.8-3.6,8.6-3.1,13.7-3c23.6,0.2,44.2-5.6,63.6-18.2c14.1-9.1,25.5-21.4,41.3-27.4
					c14.2-5.4,27.7-3.8,42.7-6.8c15-3.1,28.1-10.1,33.9-24.5c3.6-9.2,1.7-20,2.6-29.5s3.1-19.9,12.9-23.8c6.8-2.7,11.3,0.7,18.6,1.4
					c30,2.9,49.6-25,48.2-51.1c-0.3-5.1-1.9-11.4-7.4-13.4c-6.4-2.3-11.2,3.1-14.3,8.3s-3.8,12.3-8.1,17.2
					c-11,12.5-26.6,9.2-42,13.4c-13.7,3.7-23.7,13.2-34,22.5c-13.4,12.1-26.9,25.3-40.6,37.3c-5.5,4.9-11,10.4-17.8,13.3
					c-16,6.9-32.7,5.2-49.5,7.1c-2.2,0.3-3.9-1.7-3.2-3.6c7.9-23.7,20.4-46.7,40.6-62.9c10.6-8.5,21.9-14.2,30.3-24.8
					c5-6.3,7.4-14.2,13.8-19.7c9.4-8,19.9-8.2,32.3-10.7c12.4-2.5,13.2-15.3,28.6-17.7C303.4-3,182.4-3.3,140.1,9
					c-27.2,7.9-49,19.6-73.2,43.5C21.1,98,4.7,125.8-11.3,182.1c-5.8,20.2-5.1,27.5-4.1,44.4c0.9,14.8,5,23.9,7.5,37.2
					c4.3,22.2,19.6,40.7,29.2,60.6c3.4,7.1,7.1,14.3,15.6,14.2c4.8,0,6.9-4,10.6-6.3c16.3-10,33.4-5.5,51.8-5.8
					c27.6-0.5,51.2-14,76-23.9c38.9-15.5,80.2-22.7,122-27c2-0.2,3.7,1.5,3.2,3.4c-3.1,13.5-13.8,22.6-27.3,27.1
					c-14.7,4.9-28.5,3.8-42,10c-19.3,8.8-32.4,26-51.3,35.3c-9.3,4.5-18.9,5.5-28.9,7.8c-22.9,5.2-44.3,13.4-64.5,24.8
					c-1.9,1.1-2,3.6-0.2,4.7c0,0,0,0,0,0c7.6,4.9,15.3,9.2,23.8,12.7c9.3,3.8,18.5,7.9,28.1,11.1c9.6,3.2,19.7,5,29.7,7.1
					c0.3,0.1,0.5,0.1,0.8,0.2C222.2,389.7,275.5,360,329,330c3.5-1.9,7-4,8.8-8.1c1.9-4,0.6-8.7,1.5-13.3
					c4.2-20.2,24.9-25.5,36.6-41.7C387.8,250.7,384.2,227.4,378.1,209.7L378.1,209.7z M126.9,34.9c4.2-2.1,9.3-1.5,13.8-0.8
					c3,0.4,4.3,3.7,3.8,6.1c0.2,0.8,0.2,1.6,0,2.3c-0.9,4-3.4,8-7.8,9.2c-5.8,1.6-12.8-2.5-14.1-8.1
					C121.7,40.1,123.4,36.6,126.9,34.9z M338.5,255.8c-6.6,0-12.6-4.1-14.9-9.8c-2-5-0.6-9.7,2.7-13.4c3.6-7.8,16.9-7.8,23.5-2
					C360.2,239.7,352.3,255.8,338.5,255.8L338.5,255.8z"/>
				
					<linearGradient id="SVGID_00000165927691284930428150000016798181431295076745_" gradientUnits="userSpaceOnUse" x1="311.0963" y1="317.7769" x2="395.6843" y2="335.9186" gradientTransform="matrix(1 0 0 -1 0 422)">
					<stop  offset="0.18" style="stop-color:#F9BF65"/>
					<stop  offset="0.24" style="stop-color:#F8B561"/>
					<stop  offset="0.34" style="stop-color:#F69B58"/>
					<stop  offset="0.46" style="stop-color:#F3714A"/>
					<stop  offset="0.56" style="stop-color:#F04A3D"/>
				</linearGradient>
				
					<ellipse style="fill:url(#SVGID_00000165927691284930428150000016798181431295076745_);stroke:#F04A3D;stroke-miterlimit:10;" cx="334.7" cy="99.2" rx="24.2" ry="23.2"/>
			</g>
		</g>
	</g>
</g>
</svg>
