{
  "accessors": [
    {
      "bufferView": 2,
      "componentType": 5126,
      "count": 10111,
      "max": [
        31.24403953552246,
        2.8387930393218994,
        30.946311950683594
      ],
      "min": [
        -31.244037628173828,
        -2.838791847229004,
        -30.946313858032227
      ],
      "type": "VEC3"
    },
    {
      "bufferView": 2,
      "byteOffset": 121332,
      "componentType": 5126,
      "count": 10111,
      "max": [
        1.0,
        1.0,
        1.0
      ],
      "min": [
        -1.0,
        -1.0,
        -1.0
      ],
      "type": "VEC3"
    },
    {
      "bufferView": 3,
      "componentType": 5126,
      "count": 10111,
      "max": [
        0.9951847791671753,
        1.0,
        1.0,
        1.0
      ],
      "min": [
        -0.9951851963996887,
        -1.0,
        -1.0,
        1.0
      ],
      "type": "VEC4"
    },
    {
      "bufferView": 1,
      "componentType": 5126,
      "count": 10111,
      "max": [
        0.9494080543518066,
        0.9895621538162231
      ],
      "min": [
        0.010425007902085781,
        0.01042474526911974
      ],
      "type": "VEC2"
    },
    {
      "bufferView": 1,
      "byteOffset": 80888,
      "componentType": 5126,
      "count": 10111,
      "max": [
        0.9494080543518066,
        0.9895621538162231
      ],
      "min": [
        0.010425007902085781,
        0.01042474526911974
      ],
      "type": "VEC2"
    },
    {
      "bufferView": 1,
      "byteOffset": 161776,
      "componentType": 5126,
      "count": 10111,
      "max": [
        0.9494080543518066,
        0.9895621538162231
      ],
      "min": [
        0.010425007902085781,
        0.01042474526911974
      ],
      "type": "VEC2"
    },
    {
      "bufferView": 0,
      "componentType": 5125,
      "count": 15888,
      "type": "SCALAR"
    }
  ],
  "asset": {
    "extras": {
      "author": "AnshiNoWara (https://sketchfab.com/AnshiNoWara)",
      "license": "CC-BY-4.0 (http://creativecommons.org/licenses/by/4.0/)",
      "source": "https://sketchfab.com/3d-models/python-8be4a2579dd84586b915068e475073ee",
      "title": "Python"
    },
    "generator": "Sketchfab-12.66.0",
    "version": "2.0"
  },
  "bufferViews": [
    {
      "buffer": 0,
      "byteLength": 63552,
      "name": "floatBufferViews",
      "target": 34963
    },
    {
      "buffer": 0,
      "byteLength": 242664,
      "byteOffset": 63552,
      "byteStride": 8,
      "name": "floatBufferViews",
      "target": 34962
    },
    {
      "buffer": 0,
      "byteLength": 242664,
      "byteOffset": 306216,
      "byteStride": 12,
      "name": "floatBufferViews",
      "target": 34962
    },
    {
      "buffer": 0,
      "byteLength": 161776,
      "byteOffset": 548880,
      "byteStride": 16,
      "name": "floatBufferViews",
      "target": 34962
    }
  ],
  "buffers": [
    {
      "byteLength": 710656,
      "uri": "scene.bin"
    }
  ],
  "images": [
    {
      "uri": "textures/Python_baseColor.png"
    },
    {
      "uri": "textures/Python_metallicRoughness.png"
    },
    {
      "uri": "textures/Python_normal.png"
    }
  ],
  "materials": [
    {
      "doubleSided": true,
      "name": "Python",
      "normalTexture": {
        "index": 2
      },
      "pbrMetallicRoughness": {
        "baseColorTexture": {
          "index": 0
        },
        "metallicRoughnessTexture": {
          "index": 1
        }
      }
    }
  ],
  "meshes": [
    {
      "name": "Python_Python_0",
      "primitives": [
        {
          "attributes": {
            "NORMAL": 1,
            "POSITION": 0,
            "TANGENT": 2,
            "TEXCOORD_0": 3,
            "TEXCOORD_1": 4,
            "TEXCOORD_2": 5
          },
          "indices": 6,
          "material": 0,
          "mode": 4
        }
      ]
    }
  ],
  "nodes": [
    {
      "children": [
        1
      ],
      "matrix": [
        1.0,
        0.0,
        0.0,
        0.0,
        0.0,
        2.220446049250313e-16,
        -1.0,
        0.0,
        0.0,
        1.0,
        2.220446049250313e-16,
        0.0,
        0.0,
        0.0,
        0.0,
        1.0
      ],
      "name": "Sketchfab_model"
    },
    {
      "children": [
        2
      ],
      "matrix": [
        0.009999999776482582,
        0.0,
        0.0,
        0.0,
        0.0,
        0.0,
        0.009999999776482582,
        0.0,
        0.0,
        -0.009999999776482582,
        0.0,
        0.0,
        0.0,
        0.0,
        0.0,
        1.0
      ],
      "name": "311e1a0efcbb481c9c0456c36fab734c.fbx"
    },
    {
      "children": [
        3
      ],
      "name": "RootNode"
    },
    {
      "children": [
        4
      ],
      "matrix": [
        100.0,
        0.0,
        0.0,
        0.0,
        0.0,
        -1.629206793918314e-05,
        -99.99999999999868,
        0.0,
        0.0,
        99.99999999999868,
        -1.629206793918314e-05,
        0.0,
        0.0,
        0.0,
        0.0,
        1.0
      ],
      "name": "Python"
    },
    {
      "mesh": 0,
      "name": "Python_Python_0"
    }
  ],
  "samplers": [
    {
      "magFilter": 9729,
      "minFilter": 9987,
      "wrapS": 10497,
      "wrapT": 10497
    }
  ],
  "scene": 0,
  "scenes": [
    {
      "name": "Sketchfab_Scene",
      "nodes": [
        0
      ]
    }
  ],
  "textures": [
    {
      "sampler": 0,
      "source": 0
    },
    {
      "sampler": 0,
      "source": 1
    },
    {
      "sampler": 0,
      "source": 2
    }
  ]
}
